<svg xmlns="http://www.w3.org/2000/svg" viewBox="0 0 96 96">
  <rect width="96" height="96" fill="#03040a"/>
  <g fill="none" stroke="#cda2ff" stroke-width="3" stroke-linecap="round" stroke-linejoin="round">
    <path d="M48 82C35 62 28 44 48 14c20 30 13 48 0 68Z"/>
    <path d="M47 82C29 70 18 52 22 24c23 13 29 33 25 58Z"/>
    <path d="M49 82C67 70 78 52 74 24c-23 13-29 33-25 58Z"/>
    <path d="M48 83C28 82 13 72 8 52c22-1 35 8 40 31Z"/>
    <path d="M48 83c20-1 35-11 40-31-22-1-35 8-40 31Z"/>
    <path d="M20 84h56"/>
  </g>
</svg>
