<?xml version="1.0" encoding="UTF-8"?>
<svg id="Layer_3" data-name="Layer 3" xmlns="http://www.w3.org/2000/svg" viewBox="0 0 205.2 89.06">
  <defs>
    <style>
      .cls-1 {
        fill: #fff;
      }
    </style>
  </defs>
  <g id="Layer_1" data-name="Layer 1">
    <g>
      <path class="cls-1" d="M78.16,24.77c0,4-3.2,6.38-7.92,6.38h-7.73V8.96h7.02c4.53,0,7.76,2.19,7.76,6.16,0,2-1.17,3.63-2.8,4.37,2.06.71,3.67,2.8,3.67,5.27ZM69.6,18.39c.65,0,1.29-.03,1.88-.09,1.14-.37,1.88-1.39,1.88-2.9,0-2.06-1.39-3.33-3.57-3.33h-3.54v6.32h3.36ZM66.24,28.03h4.16c2.22,0,3.79-1.33,3.79-3.45s-1.42-3.42-3.36-3.42h-4.59v6.87Z"/>
      <path class="cls-1" d="M100.84,23.23c0,5.11-3.33,8.32-8.93,8.32s-8.9-3.2-8.9-8.32v-14.26h3.85v13.92c0,3.2,1.88,5.08,5.05,5.08s5.05-1.88,5.05-5.08v-13.92h3.88v14.26Z"/>
      <path class="cls-1" d="M114.49,8.96c5.02,0,8.19,2.53,8.19,7.05,0,3.27-1.97,5.42-4.37,6.25l4.84,8.87h-4.16l-4.25-8.23h-3.91v8.23h-3.82V8.96h7.49ZM110.82,12.23v7.55h3.88c2.5,0,4.1-1.32,4.1-3.76s-1.66-3.79-4.28-3.79h-3.7Z"/>
      <path class="cls-1" d="M145.98,31.48l-12.97-13.28c-.34-.31-.71-.68-1.08-.99v13.92h-3.82V8.62h.12l12.94,13.25,1.08,1.05v-13.96h3.82v22.52h-.09Z"/>
      <path class="cls-1" d="M152.6,31.14V8.96h3.88v22.18h-3.88Z"/>
      <path class="cls-1" d="M180.89,31.48l-12.97-13.28c-.34-.31-.71-.68-1.08-.99v13.92h-3.82V8.62h.12l12.94,13.25,1.08,1.05v-13.96h3.82v22.52h-.09Z"/>
      <path class="cls-1" d="M197.77,31.54c-6.87,0-11.8-4.93-11.8-11.49s4.99-11.49,11.83-11.49c3.33,0,5.76,1.05,6.78,1.54v3.64c-1.45-.71-3.73-1.6-6.65-1.6-4.93,0-8.07,3.45-8.07,7.92s3.2,7.98,7.92,7.98c1.33,0,2.8-.28,3.67-.62v-6.29h3.76v8.72c-1.91,1.02-4.74,1.69-7.42,1.69Z"/>
      <path class="cls-1" d="M67.1,47.12l-.86-.86v13.65h-3.73v-22.52h.06l10.32,11.46,10.32-11.46h.06v22.52h-3.7v-13.65l-.89.86c-1.91,2.25-3.85,4.47-5.79,6.69l-5.79-6.69Z"/>
      <path class="cls-1" d="M97.6,37.38h.12l10.51,22.52h-4.07l-1.97-4.41h-9.06l-1.97,4.41h-4.07l10.51-22.52ZM100.93,52.6c-1.26-2.83-2.31-5.33-3.24-7.86-.95,2.31-2.09,5.14-3.3,7.86h6.53Z"/>
      <path class="cls-1" d="M129.92,60.24l-12.97-13.28c-.34-.31-.71-.68-1.08-.99v13.92h-3.82v-22.52h.12l12.94,13.25,1.08,1.05v-13.96h3.82v22.52h-.09Z"/>
      <path class="cls-1" d="M66.39,80.56v8.1h-3.88v-22.18h7.02c4.93,0,8.04,2.53,8.04,7.05s-3.11,7.02-8.04,7.02h-3.14ZM66.39,69.75v7.55h3.33c2.4,0,3.94-1.32,3.94-3.76s-1.6-3.79-4.1-3.79h-3.17Z"/>
      <path class="cls-1" d="M90.7,66.48c5.02,0,8.19,2.53,8.19,7.05,0,3.27-1.97,5.42-4.37,6.25l4.84,8.87h-4.16l-4.25-8.23h-3.91v8.23h-3.82v-22.18h7.49ZM87.04,69.75v7.55h3.88c2.5,0,4.1-1.32,4.1-3.76s-1.66-3.79-4.28-3.79h-3.7Z"/>
      <path class="cls-1" d="M115.2,66.08c6.5,0,11.49,5.02,11.49,11.49s-4.9,11.49-11.49,11.49-11.49-5.02-11.49-11.49,4.93-11.49,11.49-11.49ZM115.2,85.49c4.41,0,7.58-3.42,7.58-7.92s-3.17-7.92-7.58-7.92-7.61,3.45-7.61,7.92,3.2,7.92,7.61,7.92Z"/>
      <path class="cls-1" d="M139.32,82.65c0,4.31-1.97,6.41-5.98,6.41-1.32,0-2.43-.28-2.99-.62v-3.33c.55.31,1.51.59,2.46.59,1.69,0,2.62-.92,2.62-2.68v-16.54h3.88v16.17Z"/>
      <path class="cls-1" d="M146.78,88.66v-22.18h13.96v3.27h-10.07v6.1h8.53v3.17h-8.53v6.38h10.54v3.27h-14.42Z"/>
      <path class="cls-1" d="M183.2,71.25c-1.39-.71-3.57-1.6-6.35-1.6-4.78,0-7.98,3.45-7.98,7.92s3.2,7.92,7.89,7.92c2.96,0,5.21-.86,6.59-1.57v3.6c-.92.52-3.45,1.54-6.75,1.54-6.68,0-11.64-4.93-11.64-11.49s4.96-11.49,11.74-11.49c3.2,0,5.58,1.05,6.5,1.57v3.6Z"/>
      <path class="cls-1" d="M197.74,69.75v18.92h-3.88v-18.92h-6.47v-3.27h16.82v3.27h-6.47Z"/>
    </g>
    <g>
      <path class="cls-1" d="M10.72,13.07c-2.06-3.15-3.89-5.79-5.7-8.31C3.48,2.72,2.16,1.01,1.23.31,1.04.17.73,0,.64,0c-.28.07.05,1.01,1.01,2.76,1.22,2.18,2.57,4.41,4.09,7.1,3.91,6.84,7.99,14.33,9.42,21.76,1.47,7.26.4,14.34-1.96,21.29-2.67,7.72-6.14,16.4-9.39,24.76-1.1,2.81-2.1,5.34-2.88,7.3-.4.95-1.54,3.96-.51,3.75h.01c.71-.12,2.24-1.88,3.65-4.58,1.21-2.33,2.78-5.48,4.11-8.14,4.32-8.7,8.8-17.4,11.41-26.49,2.07-6.77,2.9-13.61.01-20.4-2.25-5.59-5.61-10.91-8.89-16.02Z"/>
      <path class="cls-1" d="M47.64,84.97c-.77-1.96-1.77-4.49-2.88-7.3-3.25-8.35-6.72-17.04-9.39-24.76-2.37-6.96-3.43-14.03-1.96-21.29,1.43-7.43,5.51-14.92,9.42-21.76,1.52-2.69,2.87-4.92,4.09-7.1C47.87,1.01,48.21.07,47.92,0c-.09,0-.4.17-.58.31-.94.7-2.25,2.4-3.79,4.45-1.81,2.51-3.64,5.16-5.7,8.31-3.28,5.12-6.65,10.43-8.89,16.02-2.89,6.8-2.06,13.63.01,20.4,2.61,9.09,7.09,17.79,11.41,26.49,1.33,2.66,2.9,5.81,4.11,8.14,1.41,2.7,2.94,4.46,3.65,4.58h.01c1.03.22-.1-2.8-.51-3.75Z"/>
      <path class="cls-1" d="M31.86,12.71c-2.29-1.24-6.15-3.31-7.31-3.92-.21-.11-.46-.11-.67,0-1.16.63-5.07,2.74-7.29,3.92-.38.2-.5.69-.24,1.04,1.36,1.89,5.28,7.38,7.34,10.45.28.42.9.43,1.19,0,2-2.97,4.76-6.75,7.23-10.47.23-.35.12-.82-.25-1.02ZM29.06,14.92c-.59.77-3.64,4.97-4.57,6.24-.13.19-.41.18-.54,0-.81-1.12-3.26-4.49-4.48-6.27-.55-.8-.47-1.26.22-1.63.12-.07,2.81-1.51,3.99-2.14.35-.19.76-.18,1.11,0,.91.48,2.73,1.45,4,2.13.74.39.85.92.28,1.67Z"/>
    </g>
  </g>
</svg>